<?xml version="1.0" encoding="UTF-8" standalone="no"?>
<!-- Created with Inkscape (http://www.inkscape.org/) -->

<svg xmlns:dc="http://purl.org/dc/elements/1.1/" xmlns:cc="http://creativecommons.org/ns#" xmlns:rdf="http://www.w3.org/1999/02/22-rdf-syntax-ns#" xmlns:svg="http://www.w3.org/2000/svg" xmlns="http://www.w3.org/2000/svg" xmlns:sodipodi="http://sodipodi.sourceforge.net/DTD/sodipodi-0.dtd" xmlns:inkscape="http://www.inkscape.org/namespaces/inkscape" width="524.40942" height="372.04724" id="svg3766" version="1.1" inkscape:version="0.47pre4 r22446" sodipodi:docname="trac-log-s5.svg" inkscape:export-filename="/home/zoomq/Desktop/trac-log-s5-h70.png" inkscape:export-xdpi="38.463703" inkscape:export-ydpi="38.463703">
  <defs id="defs3768">
    <inkscape:perspective sodipodi:type="inkscape:persp3d" inkscape:vp_x="0 : 526.18109 : 1" inkscape:vp_y="0 : 1000 : 0" inkscape:vp_z="744.09448 : 526.18109 : 1" inkscape:persp3d-origin="372.04724 : 350.78739 : 1" id="perspective3774" />
    <inkscape:perspective id="perspective3749" inkscape:persp3d-origin="0.5 : 0.33333333 : 1" inkscape:vp_z="1 : 0.5 : 1" inkscape:vp_y="0 : 1000 : 0" inkscape:vp_x="0 : 0.5 : 1" sodipodi:type="inkscape:persp3d" />
  </defs>
  <sodipodi:namedview id="base" pagecolor="#ffffff" bordercolor="#666666" borderopacity="1.0" inkscape:pageopacity="0.0" inkscape:pageshadow="2" inkscape:zoom="0.63432805" inkscape:cx="262.20471" inkscape:cy="186.02362" inkscape:document-units="px" inkscape:current-layer="layer1" showgrid="false" inkscape:window-width="575" inkscape:window-height="465" inkscape:window-x="1" inkscape:window-y="47" inkscape:window-maximized="0" />
  <metadata id="metadata3771">
    <rdf:RDF>
      <cc:Work rdf:about="">
        <dc:format>image/svg+xml</dc:format>
        <dc:type rdf:resource="http://purl.org/dc/dcmitype/StillImage" />
        <dc:title></dc:title>
      </cc:Work>
    </rdf:RDF>
  </metadata>
  <g inkscape:label="Layer 1" inkscape:groupmode="layer" id="layer1" transform="translate(0,-680.31491)">
    <g id="g4408" transform="matrix(1.124394,-0.316118,0.316118,1.124394,-2.5767068,743.99428)" style="font-size:12px;fill:#c00000;fill-opacity:1;stroke:#fcf0f0;stroke-width:1.71234858;stroke-linecap:round;stroke-linejoin:round;stroke-miterlimit:4;stroke-opacity:1;stroke-dasharray:none;display:inline" sodipodi:fill-cmyk="(0.24705882 1.0000000 1.0000000 0.0000000)">
      <path d="M 1.64865,89.7548 C 4.91705,96.9453 11.692,104.967 17.5751,104.313 23.4582,103.66 29.9951,88.625 28.6877,86.0103 27.3803,83.3956 22.0302,63.6063 13.4753,63.8444 4.92047,64.0824 -1.61975,82.5643 1.64865,89.7548 z" id="path4409" style="fill:#c00000;fill-opacity:1;stroke:#fcf0f0;stroke-width:1.71234858;stroke-linecap:round;stroke-linejoin:round;stroke-miterlimit:4;stroke-opacity:1;stroke-dasharray:none" />
      <path d="M 15.7106,47.1279 C 18.2661,56.4572 29.6749,70.5387 39.8355,69.5286 49.996,68.5184 47.2651,54.1965 44.532,44.4528 44.1372,43.0455 45.2437,37.9009 43.2081,32.6565 41.1725,27.4121 36.8016,23.1465 32.5276,23.3562 20.4083,23.9507 12.4422,39.9374 15.7106,47.1279 z" id="path4410" style="fill:#c00000;fill-opacity:1;stroke:#fcf0f0;stroke-width:1.71234858;stroke-linecap:round;stroke-linejoin:round;stroke-miterlimit:4;stroke-opacity:1;stroke-dasharray:none" />
      <path d="m 57.772,55.3264 c 3.2684,7.1904 2.5578,13.43 10.2232,15.2715 C 75.6606,72.4394 86.5379,56.0765 88.3756,48.7302 90.2132,41.3839 87.8703,22.9685 74.5891,22.9998 61.3078,23.031 56.6424,37.7988 57.772,55.3264 z" id="path4411" style="fill:#c00000;fill-opacity:1;stroke:#fcf0f0;stroke-width:1.71234858;stroke-linecap:round;stroke-linejoin:round;stroke-miterlimit:4;stroke-opacity:1;stroke-dasharray:none" />
      <path d="m 81.2979,86.6942 c -0.6526,7.5469 3.6272,14.1428 12.7184,14.2018 9.0907,0.06 17.4107,-21.0349 16.1027,-23.6496 -1.307,-2.6147 -2.023,-14.562 -10.5783,-14.324 -8.5548,0.2381 -18.6596,13.7297 -18.2428,23.7718 z" id="path4412" style="fill:#c00000;fill-opacity:1;stroke:#fcf0f0;stroke-width:1.71234858;stroke-linecap:round;stroke-linejoin:round;stroke-miterlimit:4;stroke-opacity:1;stroke-dasharray:none" />
      <path d="m 23.909,124.835 c 10.1803,7.765 17.5225,-3.015 31.1547,-2.957 13.6323,0.058 22.8609,8.815 29.6848,-1.377 C 93.4945,107.438 81.3489,106.352 73.8862,97.3686 66.4235,88.3849 70.8498,81.7448 55.582,81.1674 39.1205,80.5449 42.5958,98.1702 35.0228,102.132 24.0268,107.885 17.6289,120.044 23.909,124.835 z" id="path4413" style="fill:#c00000;fill-opacity:1;stroke:#fcf0f0;stroke-width:1.71234858;stroke-linecap:round;stroke-linejoin:round;stroke-miterlimit:4;stroke-opacity:1;stroke-dasharray:none" />
      <path d="M 0.0187378,54.9699 C 0.243256,57.9677 4.22418,61.9363 6.97052,61.544 9.71686,61.1517 10.3999,58.3234 10.2253,54.576 10.0507,50.8287 5.83322,44.9805 3.7262,45.2186 c -2.10703,0.238 -3.93198,6.7535 -3.7074622,9.7513 z" id="path4414" style="fill:#c00000;fill-opacity:1;stroke:#fcf0f0;stroke-width:1.71234858;stroke-linecap:round;stroke-linejoin:round;stroke-miterlimit:4;stroke-opacity:1;stroke-dasharray:none" />
      <path d="m 23.956,13.7574 c 0.2245,2.9978 0.2055,8.2164 4.4518,7.8241 4.2463,-0.3924 6.1794,-2.7206 6.0048,-6.468 -0.1747,-3.7474 -3.3921,-10.09549 -5.4991,-9.85746 -2.107,0.23804 -5.182,5.50356 -4.9575,8.50136 z" id="path4415" style="fill:#c00000;fill-opacity:1;stroke:#fcf0f0;stroke-width:1.71234858;stroke-linecap:round;stroke-linejoin:round;stroke-miterlimit:4;stroke-opacity:1;stroke-dasharray:none" />
      <path d="m 71.206,10.7574 c 0.2245,2.9978 3.9555,8.9664 6.7018,8.5741 2.7463,-0.3924 5.4294,-5.2206 5.2548,-8.968 C 82.9879,6.61615 79.2705,-0.231995 77.1635,0.00604248 75.0565,0.24408 70.9815,7.75958 71.206,10.7574 z" id="path4416" style="fill:#c00000;fill-opacity:1;stroke:#fcf0f0;stroke-width:1.71234858;stroke-linecap:round;stroke-linejoin:round;stroke-miterlimit:4;stroke-opacity:1;stroke-dasharray:none" />
      <path d="m 98.456,55.0074 c 0.2245,2.9978 1.2055,6.2164 3.952,5.8241 2.746,-0.3924 6.179,-1.9706 6.005,-5.718 -0.175,-3.7474 -0.642,-12.3455 -2.75,-12.1075 -2.107,0.2381 -7.4315,9.0036 -7.207,12.0014 z" id="path4417" style="fill:#c00000;fill-opacity:1;stroke:#fcf0f0;stroke-width:1.71234858;stroke-linecap:round;stroke-linejoin:round;stroke-miterlimit:4;stroke-opacity:1;stroke-dasharray:none" />
    </g>
    <path style="font-size:170px;font-style:normal;font-variant:normal;font-weight:bold;font-stretch:semi-expanded;writing-mode:lr-tb;text-anchor:start;color:black;fill:#1a1a1a;fill-opacity:1;fill-rule:nonzero;stroke:#fcf0f0;stroke-width:1.75361335;stroke-linecap:round;stroke-linejoin:round;stroke-miterlimit:4;stroke-opacity:1;stroke-dasharray:none;stroke-dashoffset:0;marker:none;visibility:visible;display:inline;overflow:visible;enable-background:accumulate;font-family:Myriad Pro SemiExt" d="m 383.39432,789.42108 c -3.87548,1.63963 -8.64531,2.68302 -14.90571,2.68302 -11.62644,0 -21.76235,-6.70758 -21.76235,-20.27177 -0.14905,-11.62644 8.34722,-19.97365 21.16612,-19.97365 6.85663,0 11.32835,1.19245 14.45854,2.68303 l 3.87549,-17.43969 c -5.66417,-2.08679 -13.11703,-3.1302 -19.52649,-3.1302 -29.36422,0 -44.41903,18.03594 -44.41903,38.90391 0,22.65667 15.94914,37.5624 41.28883,37.5624 9.53965,0 18.18498,-1.63963 22.9548,-3.87549 l -3.1302,-17.14156 m -63.60026,-23.70009 c 0,-17.88684 -9.09251,-31.74917 -34.13409,-31.74917 -14.30946,0 -24.74349,3.72644 -30.10954,6.85663 l 4.32266,14.90571 c 5.06793,-2.98114 13.86232,-5.81322 21.76234,-5.81322 12.81891,0 14.45854,5.96228 14.45854,9.09248 l 0,0.74529 c -28.91706,0 -45.9096,9.39061 -45.9096,28.32085 0,11.17927 8.94345,22.35857 24.89255,22.35857 9.39059,0 17.43969,-3.1302 22.50762,-9.09249 l 0.59623,0 1.34152,7.3038 21.46423,0 c -0.74529,-3.87548 -1.19246,-10.73212 -1.19246,-18.0359 l 0,-24.89255 m -22.9548,15.20383 c 0,1.34151 -0.14906,2.83209 -0.44717,4.02454 -1.49057,4.76983 -6.70758,9.09248 -12.96797,9.09248 -5.96228,0 -9.68872,-2.98113 -9.68872,-8.34719 0,-8.19814 9.24156,-11.32834 23.10386,-11.17929 l 0,6.40946 m -92.5853,27.72462 23.70008,0 0,-36.81711 c 0,-1.49057 0,-2.98114 0.29812,-4.32265 1.34151,-7.00568 7.00569,-11.92457 16.6944,-11.92457 2.83208,0 4.91888,0.29811 6.85663,0.74528 l 0,-21.9114 c -1.93775,-0.44717 -2.98115,-0.44717 -5.06795,-0.44717 -7.6019,0 -17.58875,4.62079 -21.46422,16.24723 l -0.59623,0 -0.74529,-14.45855 -20.27177,0 c 0.44717,6.11134 0.59623,12.81893 0.59623,24.74349 l 0,48.14545 m -44.66576,-86.75125 0,13.86231 -9.98683,0 0,17.73781 9.98683,0 0,28.17179 c 0,9.98683 2.0868,17.29064 6.2604,21.9114 3.72642,3.87548 10.28495,6.85663 18.18497,6.85663 6.70756,0 12.5208,-1.0434 15.651,-2.23586 l -0.29812,-17.88685 c -2.23585,0.59623 -3.57738,0.74529 -7.3038,0.74529 -7.6019,0 -9.39059,-4.62078 -9.39059,-13.5642 l 0,-23.9982 16.99251,0 0,-17.73781 -16.99251,0 0,-19.97365 -23.10386,6.11134" id="text4418" sodipodi:nodetypes="cccccccccccccccccccccccccccccccccccccccccccccccccccccccccccccccc" />
    <path style="font-size:36px;font-style:normal;font-variant:normal;font-weight:normal;font-stretch:condensed;writing-mode:lr-tb;text-anchor:start;fill:#f3e0e0;fill-opacity:1;stroke:none;display:inline;font-family:Myriad Pro Cond" d="m 347.01196,840.39088 c -1.692,-2.304 -2.628,-3.528 -3.096,-4.212 1.62,-2.448 2.412,-5.94 2.664,-8.82 l -2.484,0 c -0.072,1.656 -0.396,4.752 -1.44,6.984 -1.872,-2.52 -3.708,-5.364 -4.644,-6.876 l 0,-0.144 c 3.096,-2.16 4.176,-4.104 4.176,-6.516 0,-3.34799 -2.052,-4.968 -4.284,-4.968 -3.13199,0 -4.968,2.66401 -4.968,5.616 0,2.016 0.72,3.816 1.764,5.436 l 0,0.108 c -2.556,1.944 -3.708,4.32 -3.708,6.984 0,3.384 2.01601,6.696 6.048,6.696 1.944,0 3.924,-0.9 5.256,-2.556 0.792,1.152 1.188,1.62 1.62,2.268 l 3.096,0 m -9.54,-1.908 c -2.52,0 -3.816,-2.34 -3.816,-4.788 0,-2.232 1.08,-3.924 2.16,-4.968 1.476,2.268 3.168,4.824 5.256,7.668 -0.864,1.332 -2.124,2.088 -3.564,2.088 l -0.036,0 m 0.216,-20.592 c 1.548,0 2.052,1.584 2.052,3.06 0,1.872 -1.008,3.384 -2.88,4.788 -0.936,-1.476 -1.368,-2.772 -1.368,-4.428 0,-1.908 0.756,-3.42 2.16,-3.42 l 0.036,0 m -17.59894,22.5 2.592,0 -1.404,-24.264 -3.096,0 -2.736,11.088 c -0.79199,3.276 -1.332,5.58 -1.8,8.352 l -0.108,0 c -0.50399,-2.772 -1.116,-5.148 -1.944,-8.352 l -2.808,-11.088 -3.024,0 -1.44,24.264 2.484,0 0.468,-10.26 c 0.144,-3.45599 0.324,-6.84 0.288,-9.684 l 0.108,0 c 0.504,2.808 1.18801,5.79601 2.016,8.892 l 2.808,10.908 1.8,0 2.952,-11.376 c 0.756,-2.808 1.40401,-5.724 1.944,-8.424 l 0.144,0 c -0.108,2.736 0.072,6.30001 0.252,9.504 l 0.504,10.44 m -18.46968,-2.736 c -0.576,0.252 -1.476,0.504 -2.52,0.504 -2.988,0 -5.724,-2.41201 -5.724,-9.864 0,-7.41599 3.06,-9.936 5.652,-9.936 1.26,0 1.836,0.252 2.412,0.504 l 0.612,-2.34 c -0.468,-0.324 -1.548,-0.612 -2.988,-0.612 -3.852,0 -8.604,3.06001 -8.604,12.672 0,8.24399 3.42,12.024 8.136,12.024 1.512,0 2.736,-0.252 3.492,-0.648 l -0.468,-2.304 m -24.31182,1.872 c 0.684,0.54 2.44801,1.08 4.104,1.08 3.852,0 6.804,-2.628 6.804,-6.804 0,-2.7 -1.296,-4.932 -4.212,-6.984 -2.30399,-1.62 -3.564,-2.592 -3.564,-5.004 0,-1.656 1.11601,-3.456 3.492,-3.456 1.26,0 2.26801,0.396 2.88,0.828 l 0.684,-2.376 c -0.57599,-0.396 -1.908,-0.9 -3.42,-0.9 -3.81599,0 -6.408,2.70001 -6.408,6.372 0,3.132 2.66401,5.4 4.572,6.732 1.908,1.44 3.204,2.808 3.204,5.04 0,2.448 -1.512,4.104 -4.032,4.104 -1.22399,0 -2.664,-0.468 -3.492,-0.972 l -0.612,2.34 m -11.29275,-24.048 0,9.252 -0.072,0 c -0.68399,-1.476 -1.908,-2.052 -3.168,-2.052 -2.69999,0 -5.256,2.88001 -5.256,9.072 0,5.76 2.12401,8.928 5.076,8.928 1.836,0 3.09601,-1.224 3.636,-2.448 l 0.144,0 0.18,2.16 2.376,0 c -0.036,-1.008 -0.144,-2.988 -0.144,-4.176 l 0,-20.736 -2.772,0 m 0,18.756 c 0,0.432 0,0.828 -0.108,1.152 -0.61199,2.52 -1.8,2.988 -2.664,2.988 -2.01599,0 -2.952,-2.952 -2.952,-6.624 0,-3.49199 0.79201,-6.696 3.096,-6.696 1.332,0 2.448,1.584 2.592,3.384 0.036,0.396 0.036,0.792 0.036,1.152 l 0,4.644 m -10.81012,-2.304 c 0.036,-0.432 0.072,-0.9 0.072,-1.584 0,-3.92399 -1.44,-7.668 -4.968,-7.668 -3.492,0 -5.868,3.52801 -5.868,9.18 0,5.364 2.16,8.748 6.3,8.748 1.404,0 2.88,-0.288 3.852,-0.828 l -0.468,-2.016 c -0.684,0.36 -1.656,0.648 -2.88,0.648 -1.98,0 -4.068,-1.116 -4.104,-6.48 l 8.064,0 m -8.028,-2.052 c 0.108,-2.376 1.044,-5.04 2.844,-5.04 1.332,0 2.628,1.54801 2.592,5.04 l -5.436,0 m -10.57894,-9.864 0,2.952 -2.124,0 0,2.088 2.124,0 0,10.116 c 0,2.412 0.324,3.6 1.044,4.392 0.648,0.756 1.62,1.044 2.736,1.044 0.9,0 1.548,-0.108 2.052,-0.288 l -0.144,-2.124 c -0.288,0.072 -0.648,0.108 -1.116,0.108 -1.008,0 -1.8,-0.576 -1.8,-2.88 l 0,-10.368 3.348,0 0,-2.088 -3.348,0 0,-4.068 -2.772,1.116 m -4.51012,8.856 c 0,-3.88799 -1.47601,-6.192 -4.968,-6.192 -1.728,0 -3.312,0.612 -4.068,1.152 l 0.612,1.944 c 0.828,-0.576 1.8,-0.9 2.88,-0.9 2.19599,0 2.772,1.62 2.772,3.96 l 0,0.54 c -3.924,0.036 -7.416,1.94401 -7.416,6.336 0,3.024 1.8,4.968 4.14,4.968 1.476,0 2.7,-0.792 3.456,-2.124 l 0.108,0 0.18,1.836 2.484,0 c -0.18,-1.116 -0.18,-2.628 -0.18,-3.96 l 0,-7.56 m -2.7,6.012 c 0,0.324 -0.036,0.684 -0.108,1.008 -0.324,1.728 -1.332,2.628 -2.556,2.628 -0.972,0 -2.124,-0.792 -2.124,-3.096 0,-3.77999 3.348,-4.068 4.788,-4.068 l 0,3.528 m -15.44569,5.508 2.772,0 0,-9.648 c 0,-0.612 0.036,-1.116 0.108,-1.584 0.288,-2.016 1.584,-3.636 3.348,-3.636 0.216,0 0.396,0 0.576,0.036 l 0,-2.844 c -0.18,-0.036 -0.36,-0.036 -0.576,-0.036 -1.62,0 -3.096,1.368 -3.672,3.024 l -0.072,0 -0.144,-2.736 -2.484,0 c 0.036,1.296 0.144,3.024 0.144,4.5 l 0,12.924 m -3.79575,-11.988 c 0,-2.7 0.108,-4.248 0.144,-5.436 l -2.484,0 -0.144,1.944 -0.072,0 c -0.54,-1.008 -1.404,-2.232 -3.24,-2.232 -2.592,0 -5.472,2.62801 -5.472,9.072 0,5.112 2.016,8.604 5.112,8.604 1.44,0 2.736,-0.756 3.312,-2.124 l 0.072,0 0,1.764 c 0,3.96 -1.368,5.328 -3.564,5.328 -1.368,0 -2.52,-0.396 -3.204,-0.756 l -0.648,2.16 c 0.9,0.504 2.34,0.864 3.816,0.864 1.944,0 3.564,-0.684 4.644,-1.836 1.152,-1.296 1.728,-3.024 1.728,-7.596 l 0,-9.756 m -2.772,5.616 c 0,0.504 0,1.044 -0.18,1.584 -0.54,2.088 -1.62,2.484 -2.484,2.484 -1.656,0 -3.06,-2.016 -3.06,-6.48 0,-3.85199 1.08,-6.552 3.06,-6.552 1.584,0 2.232,1.476 2.52,2.628 0.108,0.396 0.144,0.828 0.144,1.296 l 0,5.04 m -10.81013,-2.088 c 0.036,-0.432 0.072,-0.9 0.072,-1.584 0,-3.92399 -1.44,-7.668 -4.968,-7.668 -3.49199,0 -5.868,3.52801 -5.868,9.18 0,5.364 2.16001,8.748 6.3,8.748 1.404,0 2.88001,-0.288 3.852,-0.828 l -0.468,-2.016 c -0.68399,0.36 -1.656,0.648 -2.88,0.648 -1.97999,0 -4.068,-1.116 -4.104,-6.48 l 8.064,0 m -8.028,-2.052 c 0.108,-2.376 1.04401,-5.04 2.844,-5.04 1.332,0 2.628,1.54801 2.592,5.04 l -5.436,0 m -10.57893,-9.864 0,2.952 -2.124,0 0,2.088 2.124,0 0,10.116 c 0,2.412 0.324,3.6 1.044,4.392 0.648,0.756 1.62,1.044 2.736,1.044 0.9,0 1.548,-0.108 2.052,-0.288 l -0.144,-2.124 c -0.288,0.072 -0.648,0.108 -1.116,0.108 -1.008,0 -1.8,-0.576 -1.8,-2.88 l 0,-10.368 3.348,0 0,-2.088 -3.348,0 0,-4.068 -2.772,1.116 m -15.16669,20.376 2.772,0 0,-10.98 c 0,-0.612 0.036,-1.152 0.144,-1.548 0.324,-1.872 1.44,-2.844 2.592,-2.844 2.016,0 2.412,2.052 2.412,4.14 l 0,11.232 2.772,0 0,-11.7 c 0,-4.24799 -1.8,-6.012 -4.212,-6.012 -1.836,0 -3.24,0.972 -3.996,2.376 l -0.072,0 -0.144,-2.088 -2.412,0 c 0.036,1.404 0.144,2.448 0.144,4.5 l 0,12.924 m -6.95588,-24.264 0,24.264 2.772,0 0,-24.264 -2.772,0" id="text4421" sodipodi:nodetypes="cccccccsssccssccccscccccscsccccccccccccccccccccccccccsssccssscccsssssccsscsscccccssscccccccccsssscccssssccscccscccccccccsccsccccccccsccsccssccccccccssccccccsccscccccccccccssscccsccscccccsssccccssssccscccscccccccccsccscccccccccccsccccsccccccccccc" />
    <path style="font-size:36px;font-style:normal;font-variant:normal;font-weight:normal;font-stretch:condensed;writing-mode:lr-tb;text-anchor:start;fill:#f3e0e0;fill-opacity:1;stroke:none;display:inline;font-family:Myriad Pro Cond" d="m 377.92088,851.14794 0,2.952 -2.124,0 0,2.088 2.124,0 0,10.116 c 0,2.412 0.324,3.6 1.044,4.392 0.648,0.756 1.62,1.044 2.736,1.044 0.9,0 1.548,-0.108 2.052,-0.288 l -0.144,-2.124 c -0.288,0.072 -0.648,0.108 -1.116,0.108 -1.008,0 -1.8,-0.576 -1.8,-2.88 l 0,-10.368 3.348,0 0,-2.088 -3.348,0 0,-4.068 -2.772,1.116 m -15.16669,20.376 2.772,0 0,-10.98 c 0,-0.612 0.036,-1.152 0.144,-1.548 0.324,-1.872 1.44001,-2.844 2.592,-2.844 2.016,0 2.412,2.052 2.412,4.14 l 0,11.232 2.772,0 0,-11.7 c 0,-4.24799 -1.8,-6.012 -4.212,-6.012 -1.83599,0 -3.24,0.972 -3.996,2.376 l -0.072,0 -0.144,-2.088 -2.412,0 c 0.036,1.404 0.144,2.448 0.144,4.5 l 0,12.924 m -3.07012,-8.46 c 0.036,-0.432 0.072,-0.9 0.072,-1.584 0,-3.92399 -1.44,-7.668 -4.968,-7.668 -3.492,0 -5.868,3.52801 -5.868,9.18 0,5.364 2.16,8.748 6.3,8.748 1.404,0 2.88,-0.288 3.852,-0.828 l -0.468,-2.016 c -0.684,0.36 -1.656,0.648 -2.88,0.648 -1.98,0 -4.068,-1.116 -4.104,-6.48 l 8.064,0 m -8.028,-2.052 c 0.108,-2.376 1.044,-5.04 2.844,-5.04 1.332,0 2.628,1.54801 2.592,5.04 l -5.436,0 m -24.26906,10.512 2.772,0 0,-11.088 c 0,-0.54 0.036,-1.044 0.108,-1.476 0.324,-1.872 1.44,-2.844 2.592,-2.844 2.05199,0 2.376,2.052 2.376,3.96 l 0,11.448 2.772,0 0,-11.232 c 0,-0.576 0,-1.116 0.108,-1.548 0.396,-1.656 1.404,-2.628 2.556,-2.628 2.08799,0 2.412,2.196 2.412,4.464 l 0,10.944 2.772,0 0,-11.556 c 0,-4.46399 -1.83601,-6.156 -4.212,-6.156 -0.9,0 -1.692,0.216 -2.412,0.648 -0.612,0.432 -1.224,1.116 -1.692,1.98 l -0.072,0 c -0.648,-1.872 -2.052,-2.628 -3.672,-2.628 -1.836,0 -3.132,1.008 -3.888,2.412 l -0.072,0 -0.144,-2.124 -2.448,0 c 0.036,1.404 0.144,2.448 0.144,4.5 l 0,12.924 m -3.07013,-8.46 c 0.036,-0.432 0.072,-0.9 0.072,-1.584 0,-3.92399 -1.44,-7.668 -4.968,-7.668 -3.49199,0 -5.868,3.52801 -5.868,9.18 0,5.364 2.16001,8.748 6.3,8.748 1.404,0 2.88,-0.288 3.852,-0.828 l -0.468,-2.016 c -0.684,0.36 -1.656,0.648 -2.88,0.648 -1.98,0 -4.068,-1.116 -4.104,-6.48 l 8.064,0 m -8.028,-2.052 c 0.108,-2.376 1.044,-5.04 2.844,-5.04 1.332,0 2.628,1.54801 2.592,5.04 l -5.436,0 m -5.81175,-1.476 c 0,-2.7 0.108,-4.248 0.144,-5.436 l -2.484,0 -0.144,1.944 -0.072,0 c -0.54,-1.008 -1.404,-2.232 -3.24,-2.232 -2.592,0 -5.472,2.62801 -5.472,9.072 0,5.112 2.01601,8.604 5.112,8.604 1.44,0 2.736,-0.756 3.312,-2.124 l 0.072,0 0,1.764 c 0,3.96 -1.368,5.328 -3.564,5.328 -1.368,0 -2.52,-0.396 -3.204,-0.756 l -0.648,2.16 c 0.9,0.504 2.34,0.864 3.816,0.864 1.944,0 3.564,-0.684 4.644,-1.836 1.152,-1.296 1.728,-3.024 1.728,-7.596 l 0,-9.756 m -2.772,5.616 c 0,0.504 0,1.044 -0.18,1.584 -0.54,2.088 -1.62,2.484 -2.484,2.484 -1.656,0 -3.06,-2.016 -3.06,-6.48 0,-3.85199 1.08,-6.552 3.06,-6.552 1.584,0 2.232,1.476 2.52,2.628 0.108,0.396 0.144,0.828 0.144,1.296 l 0,5.04 m -11.63812,-5.148 c 0,-3.88799 -1.47601,-6.192 -4.968,-6.192 -1.728,0 -3.312,0.612 -4.068,1.152 l 0.612,1.944 c 0.828,-0.576 1.8,-0.9 2.88,-0.9 2.19599,0 2.772,1.62 2.772,3.96 l 0,0.54 c -3.924,0.036 -7.416,1.94401 -7.416,6.336 0,3.024 1.8,4.968 4.14,4.968 1.476,0 2.7,-0.792 3.456,-2.124 l 0.108,0 0.18,1.836 2.484,0 c -0.18,-1.116 -0.18,-2.628 -0.18,-3.96 l 0,-7.56 m -2.7,6.012 c 0,0.324 -0.036,0.684 -0.108,1.008 -0.324,1.728 -1.332,2.628 -2.556,2.628 -0.972,0 -2.124,-0.792 -2.124,-3.096 0,-3.77999 3.348,-4.068 4.788,-4.068 l 0,3.528 m -21.03469,5.508 2.772,0 0,-10.98 c 0,-0.612 0.036,-1.152 0.144,-1.548 0.324,-1.872 1.44,-2.844 2.592,-2.844 2.016,0 2.412,2.052 2.412,4.14 l 0,11.232 2.772,0 0,-11.7 c 0,-4.24799 -1.8,-6.012 -4.212,-6.012 -1.836,0 -3.24,0.972 -3.996,2.376 l -0.072,0 -0.144,-2.088 -2.412,0 c 0.036,1.404 0.144,2.448 0.144,4.5 l 0,12.924 m -3.89813,-11.52 c 0,-3.88799 -1.476,-6.192 -4.968,-6.192 -1.72799,0 -3.312,0.612 -4.068,1.152 l 0.612,1.944 c 0.828,-0.576 1.80001,-0.9 2.88,-0.9 2.196,0 2.772,1.62 2.772,3.96 l 0,0.54 c -3.92399,0.036 -7.416,1.94401 -7.416,6.336 0,3.024 1.80001,4.968 4.14,4.968 1.476,0 2.70001,-0.792 3.456,-2.124 l 0.108,0 0.18,1.836 2.484,0 c -0.18,-1.116 -0.18,-2.628 -0.18,-3.96 l 0,-7.56 m -2.7,6.012 c 0,0.324 -0.036,0.684 -0.108,1.008 -0.324,1.728 -1.332,2.628 -2.556,2.628 -0.97199,0 -2.124,-0.792 -2.124,-3.096 0,-3.77999 3.34801,-4.068 4.788,-4.068 l 0,3.528 m -12.65793,5.508 2.592,0 -1.404,-24.264 -3.096,0 -2.736,11.088 c -0.792,3.276 -1.332,5.58 -1.8,8.352 l -0.108,0 c -0.504,-2.772 -1.116,-5.148 -1.944,-8.352 l -2.808,-11.088 -3.024,0 -1.44,24.264 2.484,0 0.468,-10.26 c 0.144,-3.45599 0.324,-6.84 0.288,-9.684 l 0.108,0 c 0.504,2.808 1.188,5.79601 2.016,8.892 l 2.808,10.908 1.8,0 2.952,-11.376 c 0.756,-2.808 1.404,-5.724 1.944,-8.424 l 0.144,0 c -0.108,2.736 0.072,6.30001 0.252,9.504 l 0.504,10.44 m -29.63194,-20.376 0,2.952 -2.124,0 0,2.088 2.124,0 0,10.116 c 0,2.412 0.324,3.6 1.044,4.392 0.648,0.756 1.62,1.044 2.736,1.044 0.9,0 1.548,-0.108 2.052,-0.288 l -0.144,-2.124 c -0.288,0.072 -0.648,0.108 -1.116,0.108 -1.008,0 -1.8,-0.576 -1.8,-2.88 l 0,-10.368 3.348,0 0,-2.088 -3.348,0 0,-4.068 -2.772,1.116 m -3.41044,17.82 c -0.612,0.324 -1.26,0.468 -1.98,0.468 -2.556,0 -4.104,-2.448 -4.104,-6.516 0,-3.41999 1.224,-6.732 4.032,-6.732 0.9,0 1.62,0.288 1.98,0.468 l 0.54,-2.232 c -0.504,-0.324 -1.512,-0.576 -2.448,-0.576 -4.35599,0 -6.876,4.06801 -6.876,9.072 0,5.76 2.55601,8.82 6.372,8.82 1.224,0 2.268,-0.288 2.88,-0.648 l -0.396,-2.124 m -11.17012,-5.904 c 0.036,-0.432 0.072,-0.9 0.072,-1.584 0,-3.92399 -1.44001,-7.668 -4.968,-7.668 -3.492,0 -5.868,3.52801 -5.868,9.18 0,5.364 2.16,8.748 6.3,8.748 1.404,0 2.88,-0.288 3.852,-0.828 l -0.468,-2.016 c -0.684,0.36 -1.656,0.648 -2.88,0.648 -1.98,0 -4.068,-1.116 -4.104,-6.48 l 8.064,0 m -8.028,-2.052 c 0.108,-2.376 1.044,-5.04 2.844,-5.04 1.332,0 2.628,1.54801 2.592,5.04 l -5.436,0 m -11.322,17.712 c 1.08,-0.036 2.772,-0.576 3.816,-1.62 1.224,-1.332 1.764,-3.024 1.764,-6.696 l 0,-16.308 -2.772,0 0,15.552 c 0,3.276 -0.216,4.608 -0.828,5.544 -0.576,0.828 -1.548,1.152 -2.34,1.332 l 0.36,2.196 m 4.212,-27.324 c 0.972,0 1.62,-0.72 1.62,-1.8 0,-1.08 -0.648,-1.8 -1.62,-1.8 -0.936,0 -1.656,0.72 -1.656,1.8 0,1.08 0.684,1.8 1.62,1.8 l 0.036,0 m -10.46925,20.412 c 2.66399,0 5.76,-2.268 5.76,-9.036 0,-6.08399 -2.48401,-8.964 -5.616,-8.964 -2.988,0 -5.832,2.66401 -5.832,9.036 0,6.12 2.52,8.964 5.652,8.964 l 0.036,0 m 0.072,-2.196 c -2.484,0 -2.988,-3.924 -2.988,-6.804 0,-2.7 0.468,-6.804 2.952,-6.804 2.44799,0 2.952,4.104 2.952,6.804 0,2.736 -0.50401,6.804 -2.88,6.804 l -0.036,0 m -13.96969,1.908 2.772,0 0,-9.648 c 0,-0.612 0.036,-1.116 0.108,-1.584 0.288,-2.016 1.584,-3.636 3.348,-3.636 0.216,0 0.396,0 0.576,0.036 l 0,-2.844 c -0.18,-0.036 -0.36,-0.036 -0.576,-0.036 -1.62,0 -3.096,1.368 -3.672,3.024 l -0.072,0 -0.144,-2.736 -2.484,0 c 0.036,1.296 0.144,3.024 0.144,4.5 l 0,12.924 m -14.09175,0 2.772,0 0,-9.936 c 0.396,0.036 0.756,0.036 1.224,0.036 2.16,0 4.428,-0.9 5.724,-2.7 0.936,-1.224 1.476,-2.736 1.476,-4.968 0,-2.124 -0.612,-3.888 -1.764,-5.04 -1.26,-1.224 -3.168,-1.764 -5.4,-1.764 -1.62,0 -2.916,0.18 -4.032,0.468 l 0,23.904 m 2.772,-21.924 c 0.36,-0.108 0.9,-0.18 1.548,-0.18 3.096,0 4.104,2.232 4.104,4.716 0,3.42 -1.836,5.22 -4.536,5.22 -0.468,0 -0.792,-0.036 -1.116,-0.072 l 0,-9.684" id="text4421-6" sodipodi:nodetypes="cccccccsccscccccccccccsccccscccccccssssccscccscccccssccccssccccscccscccccccssssccscccscccccccssscccsccscccccsssccccsccsccssccccccccssccccccsccccscccccccsccsccssccccccccssccccccccccccccccccccccccccccccccsccsccccccccsssccssscccssssccscccsccccccccccccssscccssscccsssccccccsccscccccccccscscscccssscc" />
  </g>
</svg>
